<?xml version="1.0" standalone="no"?><svg xmlns="http://www.w3.org/2000/svg" viewBox="0 0 1440 320"><path fill="#e0f2fe" fill-opacity="1" d="M0,128L34.3,149.3C68.6,171,137,213,206,234.7C274.3,256,343,256,411,224C480,192,549,128,617,122.7C685.7,117,754,171,823,197.3C891.4,224,960,224,1029,202.7C1097.1,181,1166,139,1234,138.7C1302.9,139,1371,181,1406,202.7L1440,224L1440,320L1405.7,320C1371.4,320,1303,320,1234,320C1165.7,320,1097,320,1029,320C960,320,891,320,823,320C754.3,320,686,320,617,320C548.6,320,480,320,411,320C342.9,320,274,320,206,320C137.1,320,69,320,34,320L0,320Z"></path></svg>