<?xml version="1.0" standalone="no"?>
<svg xmlns:xlink="http://www.w3.org/1999/xlink" id="wave" style="transform:rotate(180deg); transition: 0.3s" viewBox="0 0 1440 360" version="1.1" xmlns="http://www.w3.org/2000/svg"><defs><linearGradient id="sw-gradient-0" x1="0" x2="0" y1="1" y2="0"><stop stop-color="rgba(224, 242, 254, 1)" offset="0%"/><stop stop-color="rgba(224, 242, 254, 1)" offset="100%"/></linearGradient></defs><path style="transform:translate(0, 0px); opacity:1" fill="url(#sw-gradient-0)" d="M0,72L60,108C120,144,240,216,360,210C480,204,600,120,720,96C840,72,960,108,1080,156C1200,204,1320,264,1440,252C1560,240,1680,156,1800,144C1920,132,2040,192,2160,210C2280,228,2400,204,2520,174C2640,144,2760,108,2880,96C3000,84,3120,96,3240,102C3360,108,3480,108,3600,114C3720,120,3840,132,3960,120C4080,108,4200,72,4320,66C4440,60,4560,84,4680,114C4800,144,4920,180,5040,216C5160,252,5280,288,5400,270C5520,252,5640,180,5760,180C5880,180,6000,252,6120,270C6240,288,6360,252,6480,246C6600,240,6720,264,6840,282C6960,300,7080,312,7200,312C7320,312,7440,300,7560,270C7680,240,7800,192,7920,186C8040,180,8160,216,8280,240C8400,264,8520,276,8580,282L8640,288L8640,360L8580,360C8520,360,8400,360,8280,360C8160,360,8040,360,7920,360C7800,360,7680,360,7560,360C7440,360,7320,360,7200,360C7080,360,6960,360,6840,360C6720,360,6600,360,6480,360C6360,360,6240,360,6120,360C6000,360,5880,360,5760,360C5640,360,5520,360,5400,360C5280,360,5160,360,5040,360C4920,360,4800,360,4680,360C4560,360,4440,360,4320,360C4200,360,4080,360,3960,360C3840,360,3720,360,3600,360C3480,360,3360,360,3240,360C3120,360,3000,360,2880,360C2760,360,2640,360,2520,360C2400,360,2280,360,2160,360C2040,360,1920,360,1800,360C1680,360,1560,360,1440,360C1320,360,1200,360,1080,360C960,360,840,360,720,360C600,360,480,360,360,360C240,360,120,360,60,360L0,360Z"/></svg>